PathFileType	4	(X/Y/Z)	Patient4_TMGait_0pt8_01_right_41.trc.trc
DataRate	CameraRate	NumFrames	NumMarkers	Units	OrigDataRate	OrigDataStartFrame	OrigNumFrames
85.889570552147	85.889570552147	4	33	mm	85.889570552147	36	       141
Frame#	Time	Sacral			L.Shoulder			Chest			R.Shoulder			Neck			R.ASIS			L.ASIS			R.Thigh.Superior			R.Thigh.Lateral			R.Thigh.Inferior			R.Patella			L.Thigh.Superior			L.Thigh.Lateral			L.Thigh.Inferior			L.Patella			L.Shank.Superior			L.Shank.Lateral			L.Shank.Inferior			R.Shank.Superior			R.Shank.Lateral			R.Shank.Inferior			R.Heel			R.Midfoot.Superior			R.Midfoot.Lateral			R.Toe			L.Heel			L.Midfoot.Lateral			L.Midfoot.Superior			L.Toe			L.Elbow			L.Wrist			R.Elbow			R.Wrist			
		X1	Y1	Z1	X2	Y2	Z2	X3	Y3	Z3	X4	Y4	Z4	X5	Y5	Z5	X6	Y6	Z6	X7	Y7	Z7	X8	Y8	Z8	X9	Y9	Z9	X10	Y10	Z10	X11	Y11	Z11	X12	Y12	Z12	X13	Y13	Z13	X14	Y14	Z14	X15	Y15	Z15	X16	Y16	Z16	X17	Y17	Z17	X18	Y18	Z18	X19	Y19	Z19	X20	Y20	Z20	X21	Y21	Z21	X22	Y22	Z22	X23	Y23	Z23	X24	Y24	Z24	X25	Y25	Z25	X26	Y26	Z26	X27	Y27	Z27	X28	Y28	Z28	X29	Y29	Z29	X30	Y30	Z30	X31	Y31	Z31	X32	Y32	Z32	X33	Y33	Z33	

36	46.417500000000	879.767699747939	995.955950488820	474.504184175933	1057.730694896466	1430.993865912590	303.384966914806	1152.902238428787	1360.025167864814	468.950714479672	1056.768802153838	1427.033143337937	639.199433046668	1030.745118591136	1487.517983667924	458.796651588731	1109.398453771655	935.558152127310	594.823782152637	1094.239608827520	955.033247753954	318.458307060404	1178.211933008309	751.657378945638	565.935169593514	1111.887836133400	632.579992051235	625.320121160138	1199.762884784108	591.497213816841	549.082405706170	1213.415875576239	502.126061123280	556.646870957413	1116.235504397621	729.319889065605	335.385336115463	1013.462964639704	623.391469315584	272.634966353030	1094.446440321789	530.370746563598	325.026107922565	1079.209876594130	446.639834398546	322.711483355984	1007.797192156588	393.426746610657	319.986475827682	864.615071507162	355.790700649958	274.024457655858	848.122166678350	228.820771303162	333.410814244210	1190.329859715634	410.626333169857	563.438340668991	1124.772573108295	302.425547807835	625.139271010457	1175.717183597292	210.345946476286	563.259533528127	1051.762405267857	42.037643114777	533.338117925343	1223.541289243360	99.614457226485	567.108339791766	1136.619909416811	36.994816741027	606.423642402537	1343.559965186324	50.270639835891	590.512430048468	655.942787770951	166.038719338088	377.618655466178	710.992096140920	118.716158669151	297.309021416370	816.402831337332	129.717368042641	315.579748974106	894.391041011914	32.412623797381	289.062616786433	1126.572695478102	1102.666267747053	157.394483957433	1377.534135759945	1094.994578996440	200.972144724750	926.036272583576	1101.311515038114	731.392560398893	894.340855387703	843.859010173114	742.033146004791	
37	46.429142857143	879.633889448074	997.676509772263	478.314028889548	1055.740880139981	1432.769250113903	305.669095931286	1152.922209511012	1361.557391593858	469.987050180311	1058.902394789943	1428.377405745757	641.361508000697	1030.673817298744	1489.051256846597	461.351063062955	1110.092509556031	937.165590952010	596.400946963162	1092.920894303223	956.182666240225	320.038148834597	1176.035608689579	750.548079554068	568.372290859644	1107.690459177485	632.912714644054	627.054560512118	1194.426915743485	590.589009107003	550.185044247878	1206.626532534031	501.326782430686	557.316425977787	1121.209607134852	732.577091808465	337.794868230560	1023.243116303582	623.597477165050	274.409441761068	1107.344773872842	532.715639781767	326.977144188519	1093.477575359567	447.663299108970	324.192875562888	1020.075025942417	394.580178237319	321.666967985726	875.501454594962	361.978828686863	275.914142622574	854.559566205088	235.798595410126	335.292433838574	1182.984920912092	410.198203371094	564.358830331648	1116.911848714938	302.294706360106	625.991096692382	1167.141728772661	210.085035789849	563.712517670409	1042.546539618643	41.966422226253	533.523666071089	1214.318095278390	99.757253558308	567.299801911326	1127.384513672690	36.991085728085	606.608836846493	1334.302663748322	50.345812175424	590.668048921740	660.273716891347	182.138784598153	379.886410201440	712.683194509152	132.248881836219	299.158067131399	818.912575246127	137.294433173315	317.199220980278	890.975618717629	33.234022879524	289.738063064819	1117.569401041880	1101.322661554537	162.066799301549	1368.737589086821	1081.007365530402	202.701625914605	936.349499068660	1098.804329051532	735.339545040006	916.411970031842	839.994460560434	745.557001074299	
38	46.440785714286	879.346006140940	999.318541021732	482.006552317163	1053.399905039507	1434.429124939981	307.837796582044	1152.756060175618	1362.958988066505	470.777635641855	1061.076838152965	1429.533759136450	643.403704731517	1030.478431302106	1490.478643026091	463.838158826133	1110.564240274850	938.616175519885	597.756335100541	1091.284767995769	957.280541459631	321.520031334005	1173.340785188116	749.392713317939	570.512251857557	1103.148064560150	633.217485389109	628.718320012606	1188.650783616236	589.659682189486	551.186774993179	1199.371250049951	500.552502417419	557.988708455064	1126.023269010030	736.185222265320	340.129176792789	1033.043452320032	624.293871004451	276.013761278921	1120.101581053858	535.740335436923	328.892375573674	1107.824316085642	449.442059116208	325.678910921149	1032.782908446502	396.289000767582	323.266356838667	887.053178100328	368.146984803752	277.851987822593	862.245197822057	242.769960992456	337.290608283055	1175.291534750292	409.796889094215	565.248091985700	1108.817220392650	302.130745016502	626.807825276421	1158.411023166064	209.848963693308	564.144672716869	1033.288421955849	41.929732455318	533.670856705950	1205.072268635235	99.826173192194	567.433326883340	1118.114893869674	36.972715919772	606.745978737274	1325.033621415777	50.270845740939	590.763283088424	666.422761047341	197.097246212065	382.423435058856	716.428847600312	145.146229711872	301.270034009938	823.172251124338	145.025441078258	319.084278653932	889.983656448317	34.832296734631	290.636130197822	1108.311216212097	1100.045300870190	166.701224276226	1358.967567822488	1065.901646752764	204.278653887243	947.243151527587	1096.226244931402	739.200771868796	939.525211923924	836.547546011453	748.999969323015	
39	46.452428571429	878.919338812474	1000.858325400572	485.549622725201	1050.767878016716	1435.949449525438	309.873916174028	1152.413982494750	1364.215736848530	471.331234321349	1063.263345620728	1430.500681039062	645.308496531918	1030.172632898531	1491.796619630726	466.221556387336	1110.816518647712	939.927309548276	598.944878030631	1089.361243222509	958.332510596837	322.962424463262	1170.219956227969	748.294607013245	572.342076880016	1098.379105365966	633.524091159963	630.337672915189	1182.575835621696	588.747338104737	552.149209303620	1191.789836401070	499.831229642876	558.720398127867	1130.580706554318	740.136176759052	342.373757815101	1042.667984995597	625.531902485152	277.439870522254	1132.525209313211	539.461765945392	330.673442450275	1122.061019362089	452.007694592663	327.028643693712	1045.774024255680	398.564382974765	324.690907004527	899.098868782820	374.122763689078	279.777596358291	871.199571638035	249.466776405759	339.311253486012	1167.376780326372	409.434912319161	566.132299872674	1100.584287747585	301.964547954080	627.622744113744	1149.583848869797	209.643693325273	564.571827346613	1023.985246893358	41.932471414990	533.797959646686	1195.799349388550	99.814483202896	567.534465929446	1108.808711867991	36.948234684348	606.856069667845	1315.749157020903	50.063372113079	590.819250911572	674.359309624031	210.281469760651	385.128529265915	722.321373999843	156.785708842645	303.572883131505	829.334673609417	152.518533582036	321.141853991066	891.822257231437	37.166664631620	291.757002049758	1098.857651421419	1098.801422382237	171.274865650602	1348.101686594376	1049.797709725217	205.686890536245	958.779542304123	1093.585316109688	742.921723127358	963.592072016793	833.605370865226	752.347149748848	
